# xmcd CD database file generated by OrangeCD 5.2
#
# Track frame offsets:
#	150
#	14385
#	28597
#	42255
#	55677
#	71365
#	85847
#	100695
#	116057
#	134797
#	151075
#	164090
#	176785
#	191062
#	203687
#	217815
#	232362
#	246642
#
# Disc length: 3470 seconds
#
# Revision: 1
# Processed by: cddbd v1.5.1PL0 Copyright (c) Steve Scherf et al.
# Submitted via: OrangeCD 5.2
#
DISCID=040d8c12
DTITLE=Billie Holiday - Masters Of Jazz - Billie Holiday
DYEAR=1900
DGENRE=Jazz
TTITLE0=What is this thing called love?
TTITLE1=As time goes by
TTITLE2=On the sunny side of the street
TTITLE3=My old flame
TTITLE4=I'll be seeing you
TTITLE5=Lover come back to me
TTITLE6=Trav'lin'
TTITLE7=I cover up the waterfront
TTITLE8=Billies Blues (I love my man)
TTITLE9=Do nothin' till you hear from me
TTITLE10=You go to my head
TTITLE11=I can't get started
TTITLE12=More than you know
TTITLE13=Sugar (That sugar baby o' mine)
TTITLE14=Strange fruit
TTITLE15=Fine and mellow
TTITLE16=God bless the child
TTITLE17=All of me
EXTD=
EXTT0=
EXTT1=
EXTT2=
EXTT3=
EXTT4=
EXTT5=
EXTT6=
EXTT7=
EXTT8=
EXTT9=
EXTT10=
EXTT11=
EXTT12=
EXTT13=
EXTT14=
EXTT15=
EXTT16=
EXTT17=
PLAYORDER=
